<svg xmlns="http://www.w3.org/2000/svg" viewBox="0 0 24 24" role="img" aria-label="WhatsApp">
  <path fill="#25d366" d="M17.47 14.38c-.3-.15-1.76-.87-2.03-.97-.27-.1-.47-.15-.67.15-.2.3-.77.97-.94 1.16-.17.2-.35.22-.64.08-.3-.15-1.26-.46-2.39-1.48-.88-.79-1.48-1.76-1.65-2.06-.17-.3-.02-.46.13-.61.13-.13.3-.35.45-.52.15-.17.2-.3.3-.5.1-.2.05-.37-.03-.52-.07-.15-.67-1.61-.92-2.21-.24-.58-.49-.5-.67-.51h-.57c-.2 0-.52.07-.79.37-.27.3-1.04 1.02-1.04 2.48s1.07 2.88 1.21 3.07c.15.2 2.1 3.2 5.08 4.49.71.31 1.26.49 1.69.63.71.23 1.36.2 1.87.12.57-.09 1.76-.72 2.01-1.41.25-.69.25-1.29.17-1.41-.07-.13-.27-.2-.57-.35z"/>
  <path fill="#25d366" d="M12.04 2a9.96 9.96 0 0 0-8.47 15.2L2.4 21.5l4.4-1.16A9.96 9.96 0 1 0 12.04 2zm0 18.18a8.23 8.23 0 0 1-4.2-1.15l-.3-.18-2.61.69.7-2.54-.2-.31a8.22 8.22 0 1 1 6.61 3.49z"/>
</svg>
